<?xml version="1.0" encoding="utf-8"?>
<!-- Generator: Adobe Adobe Illustrator 24.2.0, SVG Export Plug-In . SVG Version: 6.00 Build 0)  -->
<svg version="1.1" id="Vector_layer_1_" xmlns="http://www.w3.org/2000/svg" xmlns:xlink="http://www.w3.org/1999/xlink" x="0px"
	 y="0px" width="3000px" height="3000px" viewBox="0 0 3000 3000" style="enable-background:new 0 0 3000 3000;"
	 xml:space="preserve">
<style type="text/css">
	.st0{fill:#52ADFF;}
	.st1{fill:#7F52FF;}
</style>
<path class="st0" d="M1923.36,804.17c-0.04,0.26-0.09,0.53-0.13,0.79C1923.27,804.69,1923.32,804.43,1923.36,804.17z
	 M1989.15,2038.51c0.12,0.25,0.24,0.51,0.36,0.77C1989.39,2039.02,1989.28,2038.77,1989.15,2038.51c-0.13-0.28-0.26-0.55-0.4-0.83
	C1988.89,2037.96,1989.02,2038.23,1989.15,2038.51z M2103.47,1118.92c-0.07-0.4-0.14-0.81-0.21-1.21c-0.07-0.41-0.13-0.81-0.19-1.22
	c-0.06-0.41-0.12-0.81-0.17-1.22c0.05,0.41,0.11,0.81,0.17,1.22c0.06,0.41,0.12,0.81,0.19,1.22
	C2103.33,1118.12,2103.4,1118.52,2103.47,1118.92z M2103.87,1137.47c0.18-0.71,0.38-1.41,0.59-2.11
	C2104.24,1136.06,2104.05,1136.77,2103.87,1137.47z M2104.33,1123.15c-0.09-0.4-0.18-0.8-0.26-1.2
	C2104.15,1122.35,2104.24,1122.75,2104.33,1123.15z M2106.18,1130.66c-0.02-0.12-0.04-0.23-0.06-0.35
	c-0.32-1.18-0.63-2.37-0.93-3.57c0.3,1.19,0.61,2.38,0.93,3.57C2106.13,1130.43,2106.15,1130.54,2106.18,1130.66L2106.18,1130.66z
	 M2108.53,1173.81c-0.18-0.32-0.36-0.65-0.53-0.98C2108.18,1173.15,2108.35,1173.48,2108.53,1173.81z M2115.83,1188.83
	c-0.26-2.15-0.61-4.28-1.07-6.4c-0.64-0.69-1.25-1.4-1.84-2.13c-0.35-0.44-0.7-0.88-1.04-1.33c-0.34-0.45-0.66-0.91-0.98-1.37
	c0.32,0.46,0.65,0.92,0.98,1.37c0.34,0.45,0.68,0.89,1.04,1.33c0.59,0.73,1.2,1.44,1.84,2.13
	C2115.23,1184.55,2115.57,1186.69,2115.83,1188.83z M2115.92,1189.55c0.05,0.48,0.11,0.96,0.16,1.43
	C2116.03,1190.51,2115.98,1190.03,2115.92,1189.55z M2116.15,1191.71c0.05,0.48,0.09,0.96,0.13,1.44
	C2116.24,1192.67,2116.19,1192.18,2116.15,1191.71z M2118.83,1217.54c-0.11-0.47-0.21-0.94-0.3-1.41
	C2118.62,1216.6,2118.72,1217.07,2118.83,1217.54z M2121.63,1241.13c-0.07-0.56-0.13-1.11-0.19-1.67
	C2121.5,1240.02,2121.56,1240.58,2121.63,1241.13z M2124.83,1256.1c-0.14-0.63-0.28-1.27-0.43-1.9c-0.26-1.11-0.53-2.21-0.79-3.32
	c0.26,1.11,0.54,2.21,0.79,3.32C2124.54,1254.83,2124.69,1255.46,2124.83,1256.1z M2125.22,1258c-0.09-0.48-0.19-0.95-0.29-1.43
	C2125.03,1257.05,2125.13,1257.52,2125.22,1258z M2125.49,1259.44c0.07,0.4,0.13,0.8,0.2,1.2
	C2125.62,1260.24,2125.56,1259.84,2125.49,1259.44z M2126.88,1271.97c-0.04-0.44-0.09-0.89-0.14-1.33
	C2126.79,1271.08,2126.83,1271.52,2126.88,1271.97z M2128.21,1288.8c-0.05-0.44-0.1-0.89-0.15-1.33
	C2128.11,1287.91,2128.16,1288.36,2128.21,1288.8z M2128.48,1290.79c-0.07-0.44-0.12-0.88-0.18-1.33
	C2128.35,1289.91,2128.41,1290.35,2128.48,1290.79z M2134.87,1312.51c0.01-0.39,0.02-0.78,0.03-1.17
	C2134.89,1311.73,2134.88,1312.12,2134.87,1312.51z M2134.91,1311.24c0.02-0.37,0.04-0.74,0.06-1.1
	C2134.94,1310.5,2134.92,1310.87,2134.91,1311.24z M2137.45,1348.36c-0.15-0.6-0.3-1.2-0.43-1.8
	C2137.15,1347.16,2137.29,1347.76,2137.45,1348.36z M2138.74,1352.8c-0.36-1.1-0.69-2.21-1-3.32
	C2138.05,1350.6,2138.38,1351.71,2138.74,1352.8z M2139.97,1356.28c-0.44-1.14-0.85-2.3-1.23-3.48
	C2139.12,1353.98,2139.53,1355.14,2139.97,1356.28z M2142.06,1365.12c0.11-1,0.26-1.99,0.44-2.97c-0.91-1.9-1.76-3.86-2.53-5.87
	c0.77,2.01,1.61,3.97,2.52,5.87C2142.32,1363.13,2142.17,1364.12,2142.06,1365.12z M2147.49,1408.58c-0.2-0.55-0.38-1.1-0.56-1.65
	C2147.1,1407.48,2147.29,1408.03,2147.49,1408.58z M2152.12,1420.02c-0.1-0.93-0.19-1.87-0.28-2.8c-0.17-0.25-0.33-0.5-0.49-0.75
	c0.16,0.25,0.32,0.5,0.49,0.75C2151.93,1418.15,2152.02,1419.09,2152.12,1420.02z M2152.23,1420.96c-0.04-0.31-0.07-0.62-0.11-0.93
	C2152.16,1420.34,2152.19,1420.65,2152.23,1420.96L2152.23,1420.96z M2165.53,1437.06c-0.68-1.1-1.34-2.2-2-3.31
	C2164.19,1434.87,2164.85,1435.97,2165.53,1437.06z M2709.85,1512.88c1.91,14.75,9.08,29.55,4.4,44.52
	c-1.63,4.18-2.76,8.35-1.57,12.84c1.71,10.99-0.02,22.17-0.91,33.12c3.1,16.02-3.05,33.28-15.45,43.84
	c-6.55,19.35-17.37,38.9-38.15,45.27c-11.07,16.62-30.94,27.13-50.76,28.11c-10.2,7.33-23,10.74-35.5,10.86
	c-12.82,9.13-28.64,8.81-43.59,9.97c-11.37,5.32-24.99,6.13-37.1,3.03c-6.46,1.09-13.06,2.33-19.6,2.54
	c-3.67,2.45-7.65,4.3-11.74,5.97c-12.76,5.22-27.22,4.9-39.61-0.99c-3.65,0.2-7.3,0.15-10.96,0.1c-4.19-0.05-8.38-0.11-12.56,0.21
	c-7.39,4.29-15.92,6.52-24.45,6.52c-4.24,0-8.49-0.55-12.59-1.67c-4.26-1.14-8.3-2.83-12.11-5.05c-1.98-1.04-3.97-2.05-5.89-3.15
	c-7.7,1.63-15.61,1.72-23.28,0.17c-13.24,4.18-27.37,3.14-40.89,0.97c-1.54,0.09-3.07,0.21-4.58,0.34
	c1.12,3.86,1.71,7.88,1.73,11.91c5.04,11.36,7.5,24.41,3.29,36.57c3.68,11.91,7.58,24.07,3.6,36.52c1.32,6.79,3.28,13.59,2.57,20.58
	c1.67,4.11,3.16,8.26,3.78,12.73c1.34,6.39-1.67,13.74,2.35,19.33c6.75,11.48,8.27,26.13,4,38.63c2.79,10.38,4.79,21.28,1.59,31.81
	c1.26,8.94,0.99,17.83,3.21,26.53c0.4,9.54,3.18,18.76,3.01,28.29c4.45,9.44,5.5,20.42,2.83,30.52c3.5,5.73,5.92,11.92,6.87,18.7
	c1.17,8.41,0.11,17.67-3.36,25.63c1.08,6.88,0.27,13.91-0.06,20.84c1,3.91,1.84,7.86,1.91,11.91c10.54,17.26,13.14,39.11,5.01,57.67
	c6.85,11.89,7.53,26.14,3.43,39.05c-0.32,13.89,2.02,27.76,2.33,41.66c3.46,11.39,0.26,23.04,1.56,34.57
	c4.9,8.59,6.9,18.85,5.63,28.67c-6.8,20.39,1.7,27.03-2.25,45.03c3.91,11.02,5.16,23.13,3.67,34.71
	c8.72,15.71,9.98,36.53,2.03,52.79c0.16,2.66,0.07,5.32-0.27,7.98c-0.65,5.11-2.23,10.02-4.58,14.59c2.43,9.61,5.8,19.45,4.34,29.49
	c-1.26,5.93,1.08,11.95-0.18,18c-4.02,16.25-5.8,32.88-10.06,49.11c-5.07,24.41-4.16,44.66-30.35,58.1
	c-3,5.06-7.21,9.12-11.24,13.34c-6.46,7.34-17.01,9.05-23.03,16.56c-13.21,17.61-32.62,34.35-56.32,30.53
	c-16.47,4.24-33.15,14.18-50.15,14.18c-5.41,0-10.85-1.01-16.33-3.52c-0.83-0.35-1.64-0.72-2.42-1.12
	c-14.61,0.36-30.68,0.76-43.54-7.1c-5.49,0.6-10.69-0.15-15.88-0.9c-4.74-0.69-9.49-1.37-14.46-1.03c-9.12,3.46-19.37,3.98-28.8,1.4
	c-5.87-1.64-11.16-4.44-16.37-7.5c-11.62-0.51-21.79-5-32.68-8.12c-11.86-2.95-20.46-12.41-30.94-18.09
	c-7.6-5.95-12.77-14.27-16.29-23.13c-7.6-8.55-9.48-19.55-12.8-30.06c-7.97-17.7-4.89-28.49-5.2-46.52
	c0.89-20.85-2.78-51.18,6.9-69.37c3.5-6.28,8.31-11.02,13.83-14.3c0.07-4,0.57-8.01,1.15-11.97c-4.1-10.74-1.22-22.07-4.59-32.92
	c-1.17-7.77,0.16-15.58,2.49-23c-0.94-9.95-3.05-20.36,0.75-30c-0.9-13.06-8.52-24.72-7-38.01c0.62-8.41,1.14-16.71,1.88-25.08
	c-1.68-5.74-2.28-11.87-1.4-17.84c-7.22-14.65-3.4-31.23-5.48-46.8c-10.18-22.13-3.46-27.13-4.98-48.22
	c-12.19-16.64-14.84-41.09-6.59-59.97c-0.34-1.86-0.53-3.74-0.6-5.64c-0.13-3.49,0.19-7,0.93-10.41
	c-2.87-11.96-4.46-24.24-3.09-36.53c-8.29-14.25-8.83-32.86-3.61-48.29c-1.4-5.91-1.73-11.91-1.97-17.95
	c-0.31-0.79-0.6-1.59-0.87-2.4c-1.5-4.48-2.39-9.12-2.37-13.87c1.84-11.05-1.48-22.12,1.95-33c-2.7-5.67-1.45-12.28-4.21-17.76
	c-6.18-14.54-8.44-31.48-1.14-46.07c-2.78-9.28-1.98-18.69,0.22-27.99c-2.45-8.37-3.82-16.9-2.84-25.63
	c-1.35-5.95-2.64-12.08-1.85-18.17c-5.98-14.48-8.9-31.94-2.41-46.74c-2.57-7.7-1.68-15.91-3.78-23.5
	c-2.83-11.05-1.43-22.82-2.79-34.11c-6.61-13.19-8.97-28.61-2.79-42.55c-0.66-2.06-1.18-4.17-1.49-6.38
	c-0.25-1.82-0.38-3.65-0.39-5.47c-8.89-10.65-12.99-25.15-11.24-38.88c0.06-10.5,9.92-19.12,6.32-29.52
	c-0.79-9.84-6.43-17.73-7.76-27.51c-1.29-9.26,0.16-19.24,4.37-27.69c-2-9.35-4.17-18.8-3.16-28.42c1.76-6.18,1.13-12.22,1.54-18.58
	c1-10.41-3.27-20.91,0.49-31.15c-0.75-6.04-1.39-12.13-1.19-18.22c-5.32-11.31-6.24-24.76-1.58-36.42
	c-5.19-14.92-7.52-32.32,0.03-46.86c-1.42-5.96-2.39-12.04-1.47-18.16c1.82-6.22,1.41-11.95,0.64-18.29c0.18-4.18,0.85-8-1.12-11.88
	c-3.71-10.24,0.13-20.78,0.75-31.11c-8.02-16.65-3.12-35.1-1.91-52.54c0.5-6.58-2.32-13.32-0.83-20.05
	c2.01-7.12,2.06-13.88-1.09-20.7c-1.13-4.12-1.77-8.65-1.6-13.04c-2.16-4.29-3.24-9-4.12-13.7c-1.53-9.07,1.12-17.98,2.72-26.84
	c-1.77-10.37-6.34-20.21-4.16-31.06c-17.59-23.64-8.2-40.92-3.72-66.14c-5.26-10.37-4.12-22.04-5.96-33.19
	c-3.82-8.1-7.63-16.72-7.32-26.03c0.12-6.81,1.31-13.49,4.02-19.76c0.34-6.9-2.15-13.03-2.24-19.98
	c-0.61-5.72,2.47-11.14,1.75-16.69c0-10.89-1.97-21.7-0.32-32.56c-5.87-10.97-5.76-23.58-3.04-35.45
	c-0.44-8.75-2.06-17.75,0.27-26.33c0.42-1.57,0.98-3.13,1.7-4.66c-4.85-12.4-3.37-25.6,0.77-37.97c-0.51-5.2-0.03-10.5,1.38-15.53
	c-5.46-18.22,1.71-36.57,2.98-54.8c0.06-0.85,0.11-1.69,0.14-2.53c-2.3-11.17,3.22-21.06,5.18-31.55
	c-1.86-10.67-0.27-22.25,5.66-31.49c-0.22-3.93,0.29-8.04,1.19-11.78c-6.51-18.43,1.02-38.26,12.39-53.06
	c1.2-6.64,1.73-13.47,4.46-19.71c-2.38-17.54,3.29-37.49,16.71-49.52c4.25-8.44,3.55-18.29,8.91-26.45
	c2.87-7.44,9.3-12.51,12.53-19.54c3.7-7.97,8.33-15.15,11.81-23.21c3.59-6.03,8.72-10.9,13.59-15.88
	c2.74-11.4,12.58-18.73,16.6-29.57c2.05-3.5,4.53-6.68,7.42-9.53c5.08-6.13,13.33-7.84,18.87-12.91
	c7.87-5.48,12.06-13.92,19.52-19.84c5.62-5.02,11.92-9.62,19.24-11.69c5.73-4.63,11.79-8.93,18.86-11.11
	c10.98-17.99,26.52-18.18,43.6-25.19c12.69-3.65,23.79-12.6,37.34-12.74c9.91-6.65,20.87-12.79,33.16-12.57
	c8.58,0.68,16.86-1.62,25.53-0.81c13.25-8.79,30.95-10.33,45.41-3.71c11.89-4.75,25.44-5.19,37.29-0.06
	c7.22,4.65,14.87,5.58,23.27,6.51c23.21,2.26,36.38-7.83,58.25,8.46c14.78-0.19,30.62,4.26,41.95,13.95
	c11.4-0.17,22.9,3.67,31.39,11.44c5.6,2.31,11.28,4.74,16.4,7.98c10.46,2.95,21.83-0.18,32.03,5.15
	c9.59,4.01,17.83,11.11,23.2,20.01c5.32,2.47,9.8,6.16,15.23,8.43c16.08,0.6,29.32,10.89,39.78,22.28
	c15.03,2.33,28.91,11.92,35.71,25.6c4.57,2.19,8.58,5.27,12.71,8.19c2.38,1.69,4.56,3.81,6.49,6.15c7.7,2.56,14.59,7.38,19.77,13.61
	c8.62,4.12,15.66,11.64,19.83,20.25c9.38,6.02,15.91,14.95,23.42,23c10.22,11.69,8.26,26.71,10.82,40.68
	c1.49,9.02-0.74,17.87-5.38,25.22c2.54,3.33,4.46,7.13,5.54,11.21c2.96,8.55,7.76,16.82,8.31,26.21
	c2.73,16.18-4.39,23.96-9.16,37.32c-2.39,7.5-4.63,15.24-9.72,21.42c-3.03,3.84-7.02,6.57-8.43,11.45
	c-3.62,8.21-9.35,15.44-16.96,20.28c-6.5,7.25-13.83,14.37-22.94,18.15c-6.15,7.81-13.09,15.57-22.61,19.12
	c-6.22,11.93-17.37,20.95-30.39,24.53c-3.59,0.98-7.29,1.55-11.01,1.7c-13.3,9.4-30.38,16.4-46.89,13.52
	c-3.12,1.61-10.14,3.34-12.63,3.51c-6.74,2.33-13.47,5.12-20.72,4.99c-10.96,8.44-24.7,13.46-38.63,11.43
	c-8.81-0.2-15.78-6.76-24.33-6.83c-6.48,1.31-13.12,1.06-19.62-0.06c-10.97,1.34-22.61,0.47-32.87-4.06
	c-14.09,4.23-29.73,2.63-41.93-5.82c-14.02,5.27-30.26,3.12-42.79-5.01c-6.21-1.18-12.19-0.5-18.42-0.1
	c-3.04,2.22-6.29,4.06-9.77,5.51c-5.41,2.26-11.22,3.52-17.08,3.67c-5.37,4.9-11.88,8.6-18.86,10.52
	c-2.98,7.57-7.76,14.21-13.01,20.34c-1.59,6.92-4.43,13.36-6.16,20.26c1.61,11.09-0.82,22.72-6.99,32.11
	c-1.48,8.03,0.92,15.74-0.17,23.8c-1.04,8.17-5.16,15.33-5.36,23.64c9.52,18.75-2.03,39.22,1.03,58.29
	c2.36,7.46,1.35,15.17,0.76,22.78c0.72,8.34,3.59,16.02,4.58,24.32c1,7.26,1.4,14.72-0.76,21.82c1.35,4.85,1.28,9.89,1.56,14.89
	c11.45,13.38,14.27,33.05,7.68,49.28c1.43,5.89,2.33,11.87,2.71,17.93c12.89,13.66,16.8,34.78,9.59,52.13
	c1.9,15.79,9.68,30.67,7.06,47.1c5.26,8.86,6.44,19.23,5.66,29.3c2.31,17.09,10.48,34.33,5.28,51.6c2.07,4.51,3.21,9.57,3.45,14.55
	c6.38,11.08,7.91,24.77,6.49,37.32c3.23,5.83,5.15,12.38,5.53,19.03c1.81-0.33,3.65-0.56,5.5-0.69c8.98-4.51,19.08-4.6,28.84-3.61
	c10.39-5.55,22.27-10.27,34.17-10.12c9.42-3.86,19.84-3.42,29.83-2.78c8.71-4.4,19.06-5.62,28.67-5.78
	c10.67-8.71,24.88-12.06,38.41-10.08c12.63-7.46,28.3-8.14,42.26-4.65c4.62-1.8,9.49-2.43,14.45-2.8c4.91-1.88,9.76-3.24,14.96-3.53
	c14.15-13.45,36.19-17.31,53.94-9.19c5.58,0.37,11.06-0.5,16.53-1.37c6.79-1.08,13.55-2.16,20.43-0.86
	c14.2-3.37,28.74,1.61,40.29,9.98c2.67,0.16,5.34,0.38,7.99,0.68c16.12,1.83,29.89,12.51,36.81,26.9
	c18.62,5.62,32.64,23.65,33.49,43.03c2.53,4.35,4.12,9.11,5.35,13.92c2.96,4.91,5.05,10.26,6,15.92
	c11.84,12.64,18.64,30.9,14.03,48.03C2711.97,1482.39,2714.42,1498.55,2709.85,1512.88z M2150.66,1415.34
	c0.11,0.18,0.21,0.36,0.33,0.54c0.12,0.2,0.24,0.4,0.37,0.59c-0.12-0.2-0.25-0.39-0.37-0.59
	C2150.87,1415.7,2150.76,1415.52,2150.66,1415.34z M2149.19,1412.62c0.38,0.79,0.8,1.57,1.24,2.34
	C2149.99,1414.19,2149.58,1413.41,2149.19,1412.62z M2144.57,1385.04c0.06,0.16,0.12,0.31,0.18,0.46c0,0,0,0,0-0.01
	C2144.69,1385.35,2144.63,1385.19,2144.57,1385.04z M2134.88,1314.21c-0.01-0.56-0.01-1.11-0.01-1.67
	C2134.86,1313.1,2134.87,1313.66,2134.88,1314.21z M2122.07,1243.92c0.2,1.12,0.43,2.23,0.68,3.34
	C2122.51,1246.14,2122.28,1245.03,2122.07,1243.92z M2121.63,1231.5c0.08-0.52,0.18-1.03,0.29-1.55c0.15-0.69,0.33-1.38,0.54-2.08
	c-0.37-0.74-0.71-1.48-1.04-2.22c-0.13-0.3-0.25-0.59-0.37-0.89c0.12,0.3,0.24,0.6,0.37,0.89c0.32,0.75,0.66,1.49,1.03,2.22
	c-0.21,0.69-0.39,1.39-0.54,2.07C2121.81,1230.47,2121.71,1230.99,2121.63,1231.5z M2121.31,1237.33c-0.07-1.92,0.02-3.86,0.32-5.82
	C2121.32,1233.47,2121.24,1235.4,2121.31,1237.33z"/>
<path class="st1" d="M1696.65,1430.58c-0.06-1.42-0.06-2.85-0.08-4.28c-0.04-3.19-0.18-6.3,0.09-9.42c-0.52-1.49-0.96-3.02-1.3-4.6
	c-0.74-3.44-0.88-6.36-0.97-9.75c-0.13-4.79-0.29-9.36,0.63-14.11c0.1-0.52,0.21-1.03,0.32-1.52c-4.1-7.66-6.16-16.49-5.56-25.15
	c0.38-5.65,0.73-11.24,2.35-16.69c-0.67-3.48-0.9-6.98-0.71-10.53c0.02-1.28,0.03-2.56,0.05-3.83c-0.85-2.05-1.62-4.14-2.21-6.26
	c-2.58-2.42-4.92-5.14-6.96-8.11c-9.18-13.37-11.34-30.69-5.97-45.86c-0.44-1.25-0.82-2.51-1.14-3.79c-2.02-2.5-3.87-5.14-5.76-7.74
	c-6.01-8.26-9.23-18.2-9.01-28.4c-0.81-1.76-1.55-3.54-2.24-5.34c-0.52-0.87-1.05-1.74-1.57-2.61c-1.27-2.11-2.54-4.22-3.79-6.35
	c-2.2-4.28-3.32-8.86-4.59-13.46c-0.45-0.61-0.9-1.22-1.35-1.84c-2.53-3.43-4.1-7.41-5.6-11.36c-0.13-0.34-0.26-0.68-0.39-1.02
	c-1.99-1.44-4.04-2.89-5.85-4.45c-4.54-3.94-8.32-8.74-11.06-14.09c-1.86-3.64-3.23-7.45-4.09-11.45c-0.31-1.45-0.53-2.91-0.71-4.38
	c-2.35-2.83-4.5-5.69-6.21-9.02c-0.26-0.51-0.51-1.03-0.75-1.55c-3.22-3.59-5.79-7.4-8.03-11.68c-0.42-0.8-0.83-1.6-1.24-2.41
	c-0.27-0.17-0.53-0.34-0.79-0.51c-5.52-3.67-9.71-8.75-14.1-13.63c-2.02-2.25-3.75-4.75-5.34-7.37
	c-6.97-2.03-13.51-5.54-18.96-10.26c-4.84-4.2-8.87-9.33-11.79-15.03c-1.88-3.67-3.28-7.51-4.21-11.53
	c-1.04-1.27-2.09-2.54-3.13-3.81c-0.61-0.68-1.2-1.38-1.76-2.1c-5.36-2.62-10.75-5.22-15.3-9.16c-0.87-0.75-1.69-1.55-2.48-2.37
	c-0.76-0.31-1.51-0.65-2.24-1.01c-5.8-2.85-10.51-6.89-14.82-11.64c-0.77-0.85-1.54-1.69-2.31-2.54c-0.62-0.52-1.24-1.04-1.86-1.55
	c-0.41-0.25-0.82-0.49-1.22-0.74c-2.04-1.17-3.95-2.55-5.71-4.14c-1.7-1.32-3.4-2.62-5.03-4.04c-0.63-0.55-1.25-1.09-1.88-1.64
	c-8.58-0.43-16.92-3.05-24.16-7.85c-3.42-2.27-6.5-4.94-9.24-8c-1.26-1.6-2.52-3.2-3.77-4.8c-0.27-0.39-0.53-0.79-0.79-1.19
	c-0.34-0.12-0.68-0.23-1.02-0.35c-3.45-1.18-6.98-2.27-10.26-3.88c-4.35-2.13-8.4-5.08-12.47-7.71c-0.68-0.44-1.35-0.91-1.99-1.39
	c-0.03-0.01-0.07-0.01-0.1-0.02c-2.32-0.54-4.62-1.16-6.89-1.88c-2.04,0.43-4.11,0.73-6.21,0.89c-13.24,1.05-27.08-3.24-37.03-12.14
	c-2.59-2.31-5.17-4.62-7.52-7.14c-1.14-0.35-2.27-0.71-3.41-1.07c-0.92-0.22-1.84-0.45-2.76-0.67c-0.92,0.03-1.84,0.05-2.76,0.07
	c-3.1,0.08-6.36,0.32-9.4,0.15c-8.89-0.5-17.51-3.61-24.67-8.86c-1.65-0.13-3.3-0.33-4.93-0.57c-2.61,0.31-5.19,0.5-7.93,0.35
	c-6.46-0.36-12.38-2.26-18.1-5.03c-5.97,0.72-12.03,0.15-17.8-1.59c-3.69,0.59-7.45,0.69-11.17,0.28c-0.65-0.07-1.3-0.14-1.94-0.2
	c-0.18,0.06-0.37,0.11-0.55,0.17c-1.56,0.46-3.13,0.92-4.69,1.38c-1.99,0.56-3.98,1.13-5.96,1.7c-4.19,0.9-8.42,1.22-12.7,0.98
	c-6.17-0.35-12.55-1.86-18.08-4.68c-2.69,0.17-5.38,0.23-8.03,0.08c-1.99-0.11-3.96-0.4-5.92-0.77c-3,0.94-6.07,1.65-9.12,2.45
	c-3.76,0.98-7.42,1.63-11.22,1.83c-3.49,1.63-7.11,2.93-10.86,3.73c-5.96,1.29-11.81,1.16-17.74,0.26
	c-3.39,1.07-6.84,1.92-10.43,2.2c-2.41,0.19-4.91,0.16-7.39,0.13c-0.28,0-0.56-0.01-0.84-0.01c-0.56,0.24-1.14,0.46-1.72,0.67
	c-4.47,1.6-9.09,2.12-13.76,2.66c-4.92,3.58-10.58,6.14-16.54,7.42c-0.24,0.05-0.49,0.11-0.73,0.15c-4.34,3.36-9.25,5.92-14.52,7.73
	c-1.04,0.36-2.07,0.71-3.11,1.06c-5.45,1.86-11.07,2.83-16.82,2.69c-3.3,3.22-7.08,5.93-11.19,8.03
	c-5.59,2.87-11.72,4.55-17.98,4.95c-3.09,2.15-6.4,3.94-10.05,5.25c-2.88,1.03-5.77,1.68-8.68,2.06c-2.68,2.08-5.39,4.12-8.15,6.11
	c-5.19,3.76-10.21,7.51-16.33,9.71c-1.9,0.68-3.85,1.18-5.81,1.59c-1.58,1.16-3.17,2.31-4.78,3.44c-2.01,1.39-4.02,2.75-6.13,3.95
	c-2.64,3.74-5.94,6.84-9.54,9.73c-3.84,3.08-7.57,6.57-11.87,9.02c-2.85,3.76-6.52,7.08-10.32,9.69c-3.1,2.13-6.31,3.69-9.69,4.95
	c-1.87,4.35-4.51,8.42-7.57,11.95c-2.3,2.65-4.6,4.59-7.23,6.73c-1.61,1.31-3.2,2.59-4.84,3.8c-4.64,7.51-11.19,13.44-19.16,17.66
	c-3.18,5.78-7.69,11.08-13.09,14.86c-1.07,1.08-2.21,2.1-3.41,3.05c-1.36,3.46-3.13,6.78-5.28,9.89
	c-3.14,4.56-6.22,9.09-10.39,12.81c-0.4,0.36-0.81,0.71-1.23,1.06c-0.88,1.82-1.88,3.58-3.01,5.28c-2.08,3.13-4.55,5.99-7.34,8.51
	c-0.68,1.77-1.49,3.48-2.44,5.12c-0.91,1.66-1.81,3.31-2.71,4.96c-1.22,2.25-2.48,4.48-3.79,6.68c-0.44,0.67-0.91,1.32-1.38,1.96
	c-1.56,2.8-3.26,5.5-5.36,7.98c-1.23,3.87-2.99,7.55-5.24,10.94c-1.9,2.86-3.78,4.88-6.07,7.22c-0.37,0.38-0.74,0.76-1.11,1.14
	c-0.19,0.66-0.43,1.32-0.69,1.97c-0.76,6.66-3.49,13.28-7.09,18.77c-0.29,0.44-0.57,0.88-0.86,1.32c-1.12,3.22-2.53,6.3-4.01,9.42
	c1.02,9-0.88,18.56-4.8,26.54c-1.54,3.15-3.43,6.11-5.6,8.85c0.33,4.39,0.08,8.82-0.75,13.13c-1.18,6.12-3.54,11.98-6.92,17.2
	c-1.7,3.97-3.94,7.72-6.7,10.93c-0.28,0.9-0.58,1.8-0.91,2.7c0.04,4.07,0.11,7.94-0.69,12.03c-0.34,1.77-0.8,3.55-1.29,5.33
	c0.9,3.07,1.49,6.23,1.67,9.37c0.13,2.25,0.26,4.49,0.39,6.73c0.48,8.34-0.86,16.55-4.22,24.06c0.02,0.3,0.04,0.59,0.06,0.89
	c0.34,4.95,0.36,9.76-0.59,14.66c-0.61,3.14-1.54,6.21-2.77,9.16c-0.01,0.64-0.03,1.29-0.07,1.94c-0.24,1.98-0.49,3.96-0.74,5.94
	c-0.02,0.08-0.03,0.16-0.05,0.24c6.91,12.01,8.31,26.39,4.27,39.69c2.02,5.91,2.91,12.47,2.47,18.87c0.19,0.35,0.37,0.7,0.56,1.05
	c2.97,5.79,4.77,12.15,5.29,18.64c0.19,2.37,0.18,4.7,0.01,6.99c0.7,3.5,1.01,7.15,0.93,10.8c1.54,2.63,2.84,5.4,3.87,8.28
	c3.17,8.86,3.54,18.15,1.64,27.19c0.8,1.25,1.54,2.53,2.22,3.85c0.02,0.04,0.04,0.08,0.06,0.12c0.73,0.9,1.43,1.84,2.1,2.81
	c2.33,3.4,4.2,7.04,5.59,10.92c0.57,2,1.14,4,1.71,5.99c0.9,4.21,1.23,8.46,0.99,12.76c-0.01,0.03-0.01,0.07-0.01,0.1
	c3.68,3.57,6.8,7.63,9.21,12.33c1.9,3.7,3.28,7.58,4.16,11.65c0.3,2.09,0.61,4.18,0.92,6.27c0.11,1.38,0.16,2.75,0.15,4.12
	c0.44,0.7,0.87,1.41,1.31,2.14c0.96,1.61,1.92,3.22,2.88,4.83c0.41,0.81,0.8,1.62,1.16,2.45c0.81,1.46,1.52,2.89,2.18,4.54
	c4.62,4.72,8.11,10.41,10.59,16.69c1.07,2.72,2.13,5.42,3.2,8.13c0.54,1.38,0.97,2.81,1.33,4.27c0.38,0.62,0.75,1.25,1.13,1.87
	c1.35,1.49,2.6,3.07,3.79,4.69c0.26,0.36,0.53,0.72,0.79,1.09c2.08,1.84,4,3.98,5.93,6.01c3.59,3.78,6.68,7.86,8.99,12.45
	c2,1.79,3.83,3.78,5.6,5.81c6.57,5.34,11.67,12.35,14.58,20.45c0.29,0.8,0.55,1.61,0.8,2.44c1.65,1.87,3.18,3.81,4.56,5.83
	c1.68,1.38,3.28,2.81,4.82,4.53c1.16,1.3,2.26,2.71,3.34,4.14c5.82,3.01,10.3,7.72,14.89,12.32c1.27,1.28,2.48,2.6,3.62,3.96
	c0.8,0.34,1.59,0.7,2.38,1.09c4.26,2.09,7.9,4.84,11.51,7.88c0.93,0.79,1.87,1.58,2.8,2.38c2.94,2.49,5.55,5.41,7.77,8.59
	c1.03,0.58,2.02,1.21,2.97,1.88c1.41,0.99,2.81,1.99,4.22,2.98c3.79,2.67,7.33,5.34,10.44,8.82c1.39,1.55,2.68,3.2,3.85,4.93
	c1.41,0.56,2.81,1.15,4.14,1.81c5.91,2.9,11.14,7.08,15.29,12.16c0.9,0.52,1.76,1.08,2.58,1.68c4.09,3.01,8.2,5.99,12.33,8.95
	c4.05,0.95,7.72,2.55,11.56,4.2c1.77,0.76,3.41,1.49,5.03,2.34c3.63,1.26,7.04,2.95,10.25,5.08c2.87,1.91,5.49,4.1,7.85,6.59
	c1.36,0.79,2.73,1.58,4.09,2.36c1.07,0.62,2.09,1.39,3.1,2.14c0.47,0.2,0.94,0.4,1.41,0.61c0.49,0.26,0.97,0.52,1.45,0.79
	c3.96-0.17,7.86,0.05,11.71,0.76c2.31,0.11,4.62,0.39,6.92,0.83c10.14,1.96,20.32,7.36,27.01,15.36c0.25,0.3,0.51,0.61,0.76,0.91
	c0.25,0.09,0.49,0.18,0.73,0.27c2.87,0.79,5.7,1.82,8.51,2.75c1.52,0.5,3.03,1.02,4.54,1.55c1.74,0.35,3.46,0.79,5.14,1.35
	c0.28,0.1,0.56,0.2,0.84,0.3c0.35-0.09,0.7-0.17,1.06-0.25c3.03-0.84,6.11-1.4,9.21-1.65c6.19-0.49,12.71,0.02,18.73,1.43
	c2.91,0.69,5.72,1.49,8.57,2.32c3.28,0.96,6.44,2.53,9.4,4.33c3.34,1.67,6.48,3.74,9.34,6.13c0.36,0.09,0.72,0.19,1.08,0.29
	c0.07-0.01,0.14-0.03,0.21-0.04c6.5-1.3,12.86-1.75,19.42-0.48c2.85,0.55,5.48,1.46,8.1,2.47c1.92,0.16,3.83,0.37,5.7,0.74
	c0.66,0.13,1.32,0.28,1.97,0.44c5.04-1.57,10.33-2.22,15.63-1.92c3.5,0.2,6.86,0.91,10.17,1.84c1.93-0.12,3.85-0.12,5.79-0.16
	c0.64-0.01,1.29-0.02,1.93-0.03c1.67-0.13,3.34-0.17,5-0.11c4.38-1.39,8.97-2.09,13.57-2.09c0.84,0,1.69,0.02,2.53,0.07
	c3.06,0.17,6.22,0.77,9.28,1.25c2.11,0.32,4.2,0.69,6.24,1.16c1.44-0.5,2.92-0.93,4.46-1.26c2.53-0.54,5.15-0.86,7.78-0.94
	c0.75-0.44,1.52-0.87,2.3-1.26c3.54-1.82,7.26-3.15,11.16-3.99c6.17-1.33,12.18-1.15,18.39-0.18c0.48,0.08,0.95,0.15,1.43,0.22
	c0.87-0.05,1.73-0.1,2.6-0.16c0.34-0.02,0.69-0.03,1.03-0.05c2.91-1.91,6.01-3.48,9.32-4.66c4.31-1.54,8.71-2.32,13.2-2.52
	c2.89-1.29,5.9-2.44,8.79-3.67c2.31-1.06,4.72-1.83,7.23-2.29c4.58-0.98,9.74-1.42,14.57-0.85c1.43-0.72,2.9-1.36,4.41-1.9
	c2.68-0.96,5.42-1.55,8.2-1.96c1.48-1.01,3.02-1.92,4.62-2.75c3.3-1.69,6.76-2.93,10.39-3.71c0.69-0.15,1.37-0.29,2.06-0.44
	c1.16-0.92,2.31-1.84,3.48-2.75c4.88-3.83,10.8-6.4,16.85-7.7c0.44-0.1,0.89-0.19,1.34-0.26c2.01-1.14,4.1-2.1,6.27-2.89
	c1.54-1.63,3.14-3.2,4.71-4.82c2.71-3.11,5.76-5.85,9.16-8.19c3.43-2.36,7.1-4.24,11.01-5.64c3.81-1.36,7.92-2.28,12.1-2.66
	c1.57-0.79,3.19-1.48,4.86-2.08c0.76-0.22,1.52-0.45,2.28-0.67c5.04-5.34,11.41-9.36,18.4-11.6c1.61-1.92,3.41-3.72,5.34-5.27
	c2.11-5.85,5.3-11.29,9.38-15.98c7.48-8.64,17.73-14.46,28.87-16.62c0.5-0.65,1.02-1.29,1.57-1.92c1.93-2.23,4.18-4.22,6.34-6.24
	c3.13-2.93,6.65-5.69,10.55-7.53c0.03-0.02,0.06-0.03,0.09-0.05c0.69-2.38,1.56-4.71,2.68-7c3.27-6.67,8.03-12.11,13.8-16.7
	c2.02-1.62,4.05-3.22,6.09-4.8c1.08-0.74,2.19-1.43,3.32-2.08c2.92-4.07,6.52-7.64,10.72-10.52c0.64-0.44,1.29-0.88,1.93-1.31
	c0.7-1.12,1.43-2.23,2.18-3.34c1.97-2.91,4.08-5.62,6.48-8.05c0.18-0.64,0.37-1.26,0.58-1.88c2.05-6.11,5.5-11.79,10.04-16.37
	c1.59-4.85,3.75-9.38,6.73-13.47c1.49-8.2,5.16-15.94,10.64-22.27c2.76-3.18,5.92-6.01,9.17-8.74c0.04-0.1,0.08-0.2,0.12-0.31
	c0.26-1.53,0.53-3.06,0.79-4.6c1.23-7.14,4.77-13.22,8.61-19.22c1.56-2.43,3.16-4.79,4.96-7c0.15-0.49,0.31-0.98,0.48-1.46
	c0.88-2.17,1.78-4.34,2.69-6.5c0.62-1.47,1.24-2.95,1.86-4.42c0-0.34,0.01-0.68,0.01-1.02c0.22-3.88,0.95-7.67,2.18-11.35
	c1.13-3.36,2.78-6.69,4.19-9.98c0.48-1.13,0.97-2.26,1.47-3.39c0.25-0.91,0.51-1.82,0.79-2.73c-0.15-1.01-0.3-2.02-0.44-3.03
	c-0.32-4.18-0.09-8.33,0.7-12.45c1.78-7.01,3.05-14.42,6.24-20.94c0.68-1.38,1.43-2.73,2.24-4.03c-0.1-2.23-0.08-4.48-0.07-6.77
	c0-1.31,0.01-2.62,0.01-3.93c0.01-5.92,2-12.3,4.59-17.56c0.74-1.52,1.59-2.96,2.48-4.37c0.2-2.35,0.4-4.69,0.61-7.03
	c0.24-1.89,0.47-3.79,0.71-5.68c0.27-1.42,0.62-2.81,1.03-4.19c-0.08-0.63-0.14-1.27-0.19-1.9c-0.04-1.3-0.08-2.61-0.12-3.91
	c-0.15-4.59-0.29-8.99,0.59-13.54C1696.42,1431.59,1696.53,1431.08,1696.65,1430.58z M1910.47,2138.11
	c-0.77,0.74-1.53,1.49-2.3,2.23c-0.44,0.97-0.87,1.94-1.31,2.9c-3.33,7.41-8.06,13.86-14.56,18.82c-4.15,3.16-8.87,5.64-13.85,7.26
	c-1.32,1.92-2.81,3.71-4.55,5.23c-4.81,4.23-9.62,8.44-14.39,12.72c-0.79,0.71-1.59,1.42-2.38,2.13c-2.15,1.95-4.33,3.87-6.54,5.75
	c-2.59,1.78-5.19,3.57-7.78,5.35c-0.87,0.59-1.73,1.19-2.59,1.78c-2.86,2.18-5.95,3.96-9.26,5.35c-0.63,0.3-1.26,0.6-1.9,0.9
	c-0.79,0.91-1.57,1.81-2.36,2.71c-1.51,1.74-3.02,3.47-4.53,5.21c-3.22,3.7-6.25,7.56-10.25,10.49c-3.28,2.41-6.57,4.82-9.85,7.23
	c-4.41,3.24-9.34,5.75-14.14,8.38c-2.29,1.61-4.58,3.22-6.87,4.83c-3.44,2.42-7.1,4.45-10.8,6.42c-1.76,1.87-3.53,3.74-5.3,5.61
	c-4.94,5.23-11.53,8.13-17.81,11.33c-7.67,3.91-15.43,7.65-23.19,11.4c-3.56,2.94-7.14,5.96-11.11,8.25
	c-1.24,0.71-2.52,1.36-3.83,1.96c-0.3,0.42-0.61,0.84-0.94,1.25c-6.77,8.68-16.25,14.28-26.88,16.76c-3.08,0.72-6.17,1.54-9.27,2.2
	c-1.09,1.02-2.22,1.98-3.41,2.88c-4.76,3.62-10.34,5.91-15.67,8.54c-3.01,1.48-6.02,2.97-9.02,4.45c-2.01,0.99-4.01,1.98-6.02,2.97
	c-2.76,1.03-5.56,1.95-8.39,2.77c-5.95,1.81-11.91,3.6-17.87,5.38c-5.5,2.58-11,5.19-16.48,7.84c-2.15,1.15-4.3,2.31-6.45,3.46
	c-2.46,1.35-4.95,2.62-7.49,3.81c-2.6,1.12-5.29,1.94-8.07,2.44c-4.06,0.9-8.12,1.79-12.18,2.67c-0.49,0.38-0.98,0.77-1.47,1.16
	c-2.98,2.27-6.19,4.12-9.64,5.56c-3.15,1.52-6.31,3.03-9.46,4.55c-2.1,1.01-4.21,2.02-6.31,3.03c-4.7,2.26-9.43,3.94-14.63,4.66
	c-4.12,0.57-8.17,0.42-12.2-0.02c-1.27,0.94-2.58,1.81-3.94,2.6c-3.35,1.93-6.89,3.41-10.62,4.44c-3.78,1.04-7.67,1.44-11.54,1.97
	c-4.69,0.63-9.34,1.4-14,2.22c-4.33,0.76-8.74,0.95-13.15,1.05c-4.19,1.23-8.38,2.46-12.57,3.69c-2.83,0.93-5.72,1.63-8.66,2.08
	c-1.43,0.16-2.87,0.32-4.31,0.48c-3.25,1.62-6.54,3.16-10.06,4.12c-2.87,0.79-5.79,1.19-8.73,1.4c-3.23,1.84-6.61,3.3-10.27,4.31
	c-5.67,1.56-11.92,2.14-17.76,1.26c-1.06-0.16-2.11-0.32-3.17-0.48c-0.04,0.01-0.08,0.02-0.13,0.03c-1.82,0.38-3.64,0.75-5.47,1.13
	c-2.81,0.42-5.62,0.51-8.44,0.3c-0.34-0.01-0.67-0.03-1.01-0.04c-0.02,0.01-0.04,0.03-0.06,0.04c-3.62,2.76-7.55,4.95-11.71,6.62
	c-3.65,1.79-8.52,2.98-12.57,3.54c-2.43,0.41-4.87,0.65-7.46,0.59c-0.11,0.01-0.23,0.01-0.34,0.02c-4.38,0.03-8.25-0.5-12.44-1.52
	c-1.47,0.18-2.96,0.29-4.45,0.33c-4.53,2.01-9.16,3.5-14.11,4.19c-6.46,0.9-13.44,0.62-19.72-1.24c-4.18-1.23-8.23-2.5-12.1-4.39
	c-1.66,0.18-3.33,0.28-5.02,0.38c-4.16,2.61-8.69,4.61-13.43,5.91c-4.21,1.16-8.49,1.75-12.86,1.78c-2.21-0.13-4.43-0.26-6.64-0.4
	c-4.53-0.58-8.91-1.76-13.12-3.52c-1.55-0.55-3.1-1.1-4.65-1.65c-1.13-0.48-2.24-0.99-3.33-1.55c-1.28,0.12-2.56,0.17-3.83,0.18
	c-3.05,0.63-6.14,1.05-9.27,1.07c-1.23-0.07-2.46-0.15-3.69-0.22c-4.26,0.94-8.65,1.28-13.08,1.06c-3.1-0.15-6.2-0.33-9.3-0.54
	c-3.69-0.47-7.33-1.38-10.81-2.7c-7.78,3-16.25,4.04-24.53,2.99c-9.02-1.15-17.48-4.76-24.53-10.19c-1.55-0.29-3.09-0.61-4.59-1.02
	c-1.29-0.34-2.56-0.75-3.8-1.22c-0.36,0.11-0.72,0.21-1.09,0.31c-3.94,1.08-7.94,1.63-12.02,1.66c-2.07-0.13-4.14-0.25-6.21-0.37
	c-4.24-0.55-8.33-1.64-12.27-3.29c-3.67-1.26-7.1-2.39-10.51-4.2c-5.44,1.24-11.07,1.52-16.61,0.81c-4.32-0.56-8.5-1.67-12.52-3.36
	c-4.7-1.97-8.76-4.65-12.56-7.86c-0.85,0.07-1.71,0.11-2.58,0.11c-6.02,0.04-11.8-1.23-17.38-3.45c-1.31-0.52-2.61-1.04-3.92-1.56
	c-2.17-0.06-4.33-0.17-6.44-0.43c-4.38-0.56-8.15-1.92-12.27-3.32c-3.14-1.07-6.29-2.13-9.43-3.2c-3.93-1.33-8.13-2.47-11.94-4.07
	c-2.26-0.95-4.44-2.09-6.51-3.4c-1.32-0.3-2.63-0.64-3.93-1.04c-2.66-0.11-5.31-0.29-7.95-0.55c-4.3-0.39-8.5-1.28-12.51-2.73
	c-1.35-0.05-2.71-0.17-4.06-0.34c-10.81-1.38-20.5-6.38-28.27-13.94c-1.37-1.34-2.75-2.68-4.13-4.01c-0.34-0.03-0.67-0.07-1-0.11
	c-5.01-0.64-9.59-2.29-14.2-4.25c-0.77-0.33-1.55-0.65-2.31-0.99c-3.14-0.98-6.14-2.31-9-3.98c-0.05-0.03-0.11-0.06-0.16-0.09
	c-0.79-0.16-1.59-0.34-2.37-0.55c-3.67-0.98-6.92-2.5-10.35-4.04c-5.08-2.29-9.62-5.16-13.63-9.01c-4.56-1.58-9.2-3.09-13.37-5.54
	c-0.41-0.24-0.81-0.49-1.22-0.74c-5.66-0.18-11.22-1.28-16.59-3.54c-1.01-0.42-2-0.88-2.97-1.37c-6.2-2.35-11.87-5.95-16.64-10.78
	c-1.53-1.55-2.82-3.12-4.03-4.76c-0.1-0.03-0.2-0.06-0.3-0.09c-1.48-0.43-2.96-0.87-4.43-1.31c-5.86-1.74-11.24-4.22-16.09-7.99
	c-1.39-1.09-2.72-2.27-3.99-3.51c-4.08-1.52-7.97-3.48-11.42-6.34c-2.54-2.1-5.08-4.2-7.61-6.31c-1.27-0.99-2.47-2.04-3.61-3.16
	c-2.16-0.91-4.32-1.82-6.48-2.73c-5.39-2.27-10.35-5.69-15.35-8.69c-3.35-2.01-6.42-4.41-9.14-7.15c-3.67-2.02-7.15-4.43-10.03-7.51
	c-1.21-1.29-2.41-2.59-3.62-3.88c-1.42-1.26-2.84-2.52-4.26-3.79c-0.67-0.63-1.34-1.27-2.01-1.9c-1.71-0.52-3.4-1.1-5.04-1.79
	c-5.31-2.23-10.16-5.5-14.21-9.6c-0.03-0.03-0.07-0.07-0.1-0.1c-0.46-0.18-0.92-0.36-1.38-0.55c-3.7-1.55-7.13-3.56-10.3-6.02
	c-1.81-1.23-3.62-2.46-5.42-3.7c-3.13-2.44-5.89-5.23-8.29-8.39c-1.34-1.76-2.54-3.6-3.61-5.52c-1.08-0.34-2.15-0.73-3.22-1.18
	c-3.73-1.57-7.2-3.59-10.39-6.08c-1.76-1.49-3.52-2.99-5.27-4.49c-1.54-0.79-3.08-1.57-4.63-2.36c-3.61-2.12-6.89-4.67-9.83-7.65
	c-4.33-4.38-7.79-9.59-10.17-15.27c-0.35-0.84-0.67-1.68-0.97-2.53c-3.45-1.51-6.66-3.42-9.63-5.73
	c-4.54-3.54-8.55-8.03-11.37-13.07c-0.18-0.32-0.36-0.63-0.53-0.95c-1.52-1.17-2.95-2.45-4.31-3.82c-1.51-1.53-2.84-3.18-4.09-4.87
	c-0.18-0.18-0.37-0.36-0.55-0.54c-0.21-0.23-0.42-0.47-0.63-0.7c-4.53-2.25-8.65-5.19-12.22-8.8c-4.07-4.12-7.14-8.89-9.5-14.15
	c-0.14-0.11-0.29-0.22-0.43-0.33c-4.46-3.39-8.22-7.82-11.01-12.66c-0.61-1.05-1.14-2.1-1.63-3.16c-0.36-0.2-0.72-0.41-1.08-0.61
	c-6.01-3.42-11.31-7.52-15.53-13.06c-1.57-2.07-3.09-4.38-4.39-6.81c-1.8-1.35-3.51-2.84-5.11-4.46c-2.8-2.83-4.82-5.84-7.04-9.07
	c-0.95-1.38-1.89-2.76-2.82-4.16c-3.42-3.77-6.48-8.28-8.23-13c-1.03-2.78-2.06-5.56-3.1-8.33c-0.1-0.2-0.19-0.39-0.29-0.58
	c-1.8-2.56-3.61-5.13-5.41-7.68c-2.5-3.11-5.04-6.28-7.03-9.71c-0.21-0.37-0.42-0.74-0.62-1.11c-0.9-1.27-1.8-2.54-2.7-3.82
	c-0.07-0.1-0.15-0.21-0.22-0.31c-0.69-0.63-1.38-1.27-2.07-1.92c-4.08-3.8-7.84-7.63-10.67-12.53c-1.69-2.94-2.94-6.08-4.03-9.29
	c-1.16-1.61-2.27-3.24-3.25-4.94c-0.16-0.27-0.31-0.55-0.46-0.83c-4.02-3.38-7.19-7.53-10.52-11.58
	c-4.33-5.27-7.64-11.08-9.46-17.69c-0.45-1.65-0.81-3.35-1.11-5.06c-1.53-2.69-3.05-5.37-4.57-8.07c-0.24-0.43-0.47-0.86-0.7-1.29
	c-6.14-3.37-11.59-8.03-15.82-13.58c-7.26-9.53-10.64-21.17-10.1-33c-0.84-1.45-1.59-2.95-2.26-4.55
	c-1.59-3.81-2.59-7.78-3.05-11.85c-1.12-1.37-2.23-2.74-3.35-4.1c-3.2-3.93-5.19-8.68-7.18-13.33c-0.43-0.64-0.84-1.29-1.23-1.97
	c-2.23-3.86-3.67-8.02-4.74-12.3c-2.16-1.93-4.16-4.07-5.97-6.45c-2.46-3.23-4.47-6.72-6.04-10.47c-0.66-1.91-1.32-3.83-1.98-5.74
	c-1.09-3.98-1.65-8.03-1.68-12.15c0.12-2.1,0.24-4.2,0.36-6.3c-1.11-2.91-2.21-5.81-3.32-8.71c-2.19-4.18-4.36-8.24-5.65-12.83
	c-0.22-0.8-0.45-1.6-0.67-2.4c-1.29-1.9-2.53-3.83-3.64-5.83c-3.5-3.39-6.51-7.27-8.87-11.36c-6.54-11.33-8.73-25.6-5.03-38.25
	c0.39-1.32,0.77-2.64,1.16-3.96c-1.4-3.07-2.8-6.15-4.21-9.22c-0.9-1.23-1.8-2.46-2.69-3.69c-6.18-8.48-9.83-18.36-9.9-28.92
	c-0.02-2.93,0.24-5.86,0.75-8.75c-0.68-1.75-1.36-3.51-2.04-5.26c-1.17-2.89-2.22-5.81-3.17-8.78c-1.67-6.1-1.83-12.04-1.29-18.3
	c0.22-2.56,0.44-5.12,0.65-7.68c-0.18-0.75-0.37-1.5-0.56-2.25c-0.99-4.02-2.22-8.12-2.79-12.23c-0.69-4.92-0.22-9.69,0.19-14.59
	c0.04-0.43,0.07-0.87,0.11-1.3c-0.27-0.41-0.54-0.82-0.82-1.23c-3.88-6.72-6.12-14.57-6.09-22.35c0.02-5.51-0.3-11.2,0.4-16.68
	c0.22-1.75,0.59-3.46,1.04-5.14c-0.74-3.09-1.12-6.23-1.15-9.42c0-0.01,0-0.02,0-0.03c-0.91-5.75-1.78-11.5-2.45-17.3
	c-0.4-3.54-0.81-7.09-1.22-10.63c-0.62-5.4-0.78-10.91-1.17-16.34c-0.58-8.25-1.17-16.49-1.75-24.74
	c-0.4-5.72,1.22-11.22,3.05-16.57c0.15-0.73,0.31-1.45,0.51-2.17c0.52-1.92,1.18-3.8,1.91-5.65c-0.3-2.13-0.52-4.28-0.53-6.42
	c-0.01-0.97,0.03-1.94,0.11-2.91c-1.39-3.47-2.49-7.04-3.02-10.81c-1.3-9.3,1.12-18.44,2.78-27.53c0.08-1.1,0.16-2.19,0.24-3.28
	c0.16-2.19,0.32-4.37,0.48-6.56c0.32-4.37,0.63-8.75,0.95-13.12c0.16-2.19,0.32-4.37,0.48-6.56c0.52-3,1.15-5.98,1.87-8.94
	c0.29-1.25,0.58-2.5,0.87-3.74c-0.12-3.14-0.37-6.28-0.57-9.42c-0.34-3.18-0.3-6.35,0.14-9.53c0.52-4.08,1.58-8.03,3.17-11.83
	c0.69-1.77,1.37-3.54,2.06-5.31c0.2-5.64,0.4-11.29,0.6-16.93c-0.01-0.97,0.02-1.94,0.08-2.91c-1.2-5.38-1.51-10.94-0.8-16.56
	c1.23-9.67,5.46-19.54,12.21-26.75c0.75-2.32,1.51-4.63,2.29-6.93c0.18-0.92,0.35-1.83,0.53-2.75c0.55-2.87,1.11-5.74,1.66-8.61
	c0.18-3.61,0.36-7.22,0.54-10.83c0.11-2.13,0.21-4.27,0.32-6.41c0.21-4.24,0.18-8.68,0.71-12.86c1.32-10.33,5.97-20.1,13.18-27.61
	c-0.24-3.12-0.15-6.24,0.24-9.36c1.04-8.16,4.25-16.46,9.49-22.86c0.49-0.59,0.98-1.19,1.46-1.79c0.25-1.24,0.51-2.49,0.76-3.73
	c0.83-4.11,3.04-8.23,4.7-12.07c1.26-2.92,2.53-5.85,3.79-8.77c0.91-2.78,1.81-5.56,2.72-8.33c0.97-3.02,1.98-6.02,3.03-9.01
	c0.96-2.06,1.92-4.12,2.88-6.18c1.92-4.12,3.84-8.24,5.76-12.36c1.86-3.99,3.82-7.94,5.37-12.06c0.26-0.69,0.52-1.38,0.78-2.07
	c0.29-0.84,0.57-1.68,0.86-2.52c0.19-0.46,0.4-0.92,0.6-1.37c0.65-1.74,1.31-3.48,1.96-5.21c1.71-4.54,4.76-8.58,7.39-12.61
	c0.02-0.32,0.05-0.64,0.07-0.96c0.54-4.18,1.62-8.21,3.24-12.09c2.3-5.48,5.73-10.84,10.08-14.93c0.56-0.53,1.13-1.05,1.69-1.58
	c0.76-2.25,1.56-4.47,2.56-6.63c0.63-1.86,1.27-3.72,1.9-5.58c1.55-3.69,3.55-7.12,6.01-10.28c2.02-2.3,4.04-4.6,6.06-6.9
	c1.35-1.53,2.7-3.07,4.04-4.6c0.66-0.92,1.33-1.84,1.99-2.77c1.33-1.84,2.65-3.69,3.98-5.53c1.36-1.89,2.73-3.79,4.09-5.68
	c0.51-1.11,1.02-2.22,1.54-3.32c0.36-0.77,0.73-1.55,1.09-2.32c0.03-0.12,0.05-0.24,0.07-0.36c0.83-4.15,1.53-7.92,3.2-11.9
	c1.71-4.08,3.99-7.68,6.75-11.05c1.93-4.65,4.63-8.9,7.94-12.91c3.03-3.68,5.96-7.64,9.35-10.99c2.13-1.86,4.27-3.71,6.42-5.55
	c0.08-0.06,0.15-0.13,0.23-0.19c0.96-1.42,1.92-2.84,2.88-4.26c1.02-1.99,2.03-3.99,3.05-5.98c1.01-2,2.03-3.99,3.05-5.98
	c0.33-0.49,0.66-0.98,0.99-1.47c0.84-2.2,1.8-4.35,3.03-6.44c2.17-3.7,4.97-7.36,8.22-10.37c1.95-3,3.87-6.13,6.03-8.91
	c3.35-4.3,7.61-7.67,11.67-11.26c0.34-0.3,0.67-0.59,1-0.9c2.47-5.68,4.95-11.38,8.78-16.31c4.76-6.1,10.99-10.98,18.01-14.16
	c2.38-7.17,6.64-13.84,11.89-19.02c2.92-2.88,6.16-5.35,9.72-7.41c0.32-0.16,0.64-0.32,0.96-0.48c2.32-4.84,5.43-9.24,9.3-13.07
	c5.57-5.5,12.44-9.54,19.92-11.83c0.18-0.48,0.37-0.95,0.57-1.42c1.62-3.87,3.72-7.45,6.29-10.76c2.52-3.23,5.4-6.08,8.66-8.56
	c4.97-3.79,10.33-6.11,16.23-8.04c0.34-0.11,0.68-0.22,1.02-0.33c3.43-5.43,8.2-9.94,12.53-14.64c3.82-4.14,8.17-7.6,13.04-10.2
	c0.56-0.6,1.12-1.2,1.68-1.8c3.43-3.68,7.11-6.9,11.5-9.44c2.54-1.47,5.24-2.61,7.99-3.64c0.51-0.48,1.03-0.94,1.55-1.38
	c3.11-3.4,6.56-6.3,10.58-8.62c3.38-1.95,6.96-3.27,10.62-4.33c0.27-0.15,0.54-0.3,0.81-0.45c3.42-3.75,6.83-7.5,10.25-11.26
	c2.78-2.74,5.86-5.09,9.24-7.04c0.9-0.52,1.81-1,2.74-1.46c3.11-4.91,7.1-9.24,11.72-12.77c7.16-5.46,15.4-8.55,24.13-9.66
	c0.3-0.24,0.59-0.48,0.9-0.71c6.12-4.66,13.36-7.12,20.46-9.82c1.78-0.96,3.57-1.93,5.35-2.89c0.67-0.54,1.34-1.09,2.01-1.63
	c1.82-2.81,3.89-5.43,6.36-7.86c4.45-4.39,9.74-7.92,15.51-10.33c4.62-1.93,9.53-3.15,14.52-3.59c4.93-5.58,11.14-10.04,17.97-12.9
	c5.84-2.44,12.14-3.74,18.47-3.78c1.23-0.01,2.48,0.03,3.75,0.11c2.04-2.24,4.27-4.28,6.59-6.05c6.33-4.82,14.17-8.31,22.12-9.23
	c2.74-0.32,5.48-0.63,8.22-0.95c1.74-1.03,3.55-1.96,5.42-2.77c4.15-1.8,8.27-3.81,12.64-5c0.64-0.18,1.29-0.33,1.93-0.47
	c0.58-0.38,1.18-0.76,1.79-1.11c3.34-1.93,6.87-3.4,10.59-4.43c3.37-0.93,7.01-1.42,10.47-2.07c1.52-0.29,3.05-0.5,4.57-0.64
	c2.06-1.7,4.22-3.27,6.53-4.61c6.08-3.51,12.92-5.57,19.89-6.03c0.7-0.47,1.42-0.92,2.15-1.34c8.06-4.65,17.44-6.78,26.7-6.08
	c3.17-1.7,6.45-3.16,9.96-4.13c1.13-0.31,2.26-0.56,3.4-0.77c0.12-0.06,0.23-0.11,0.34-0.17c5.19-2.46,11.48-3.48,17.18-3.52
	c1.14-0.01,2.26,0.04,3.38,0.13c0.05-0.02,0.11-0.03,0.17-0.05c0.77-0.21,1.55-0.4,2.34-0.57c2.52-1.7,5.21-3.16,8.04-4.34
	c2.6-1,5.25-1.87,7.93-2.62c4.71-1.38,9.42-2.31,14.35-2.34c3.51-0.02,7.01,0.35,10.44,1.11c1-0.35,2-0.67,3.03-0.95
	c2.89-0.79,5.74-1.22,8.61-1.38c0.44-0.27,0.88-0.54,1.32-0.79c3.51-2.02,7.22-3.57,11.13-4.65c7.8-2.14,16.87-2.51,24.66-0.06
	c2.06,0.65,4.12,1.3,6.18,1.95c1.78-0.7,3.57-1.33,5.39-1.83c4.61-1.27,9.22-1.43,13.96-1.65c2.22-0.11,4.43-0.21,6.65-0.31
	c7.66-0.7,15.37-1.27,22.95-2.5c6.16-1,12.14-2.01,18.42-1.21c1.16,0.15,2.31,0.34,3.44,0.58c3.33-1.87,6.84-3.31,10.52-4.33
	c5.68-1.56,12.29-2.33,18.15-1.28c4.47,0.79,8.93,1.59,13.39,2.38c2.23,0.4,4.47,0.8,6.7,1.19c1.16,0.1,2.32,0.2,3.48,0.31
	c0.8,0.07,1.59,0.14,2.39,0.21c5.07-0.37,10.15-0.94,15.22-0.29c2.81,0.51,5.6,1.08,8.38,1.71c0.4,0.09,0.79,0.17,1.18,0.26
	c0.16-0.01,0.32-0.01,0.48-0.02c0.89-0.3,1.78-0.6,2.67-0.9c4.84-1.63,9.67-2.65,14.82-2.68c6.39-0.04,12.35,1.62,18.33,3.44
	c2.9,0.12,5.79,0.28,8.69,0.48c3.15,0.4,6.21,1.23,9.23,2.18c2.61-0.3,5.22-0.61,7.83-0.91c3.12-0.41,6.25-0.69,9.4-0.83
	c4.47-0.03,8.7,0.8,13.07,1.52c3.2,0.49,6.38,1.08,9.53,1.77c2.34,0.63,4.62,1.44,6.83,2.43c2.3-0.69,4.65-1.2,7.05-1.53
	c4.18-0.58,8.36-0.6,12.55-0.07c4.32,0.56,8.49,1.67,12.51,3.35c4.84,2.03,9.89,4.99,13.78,8.72c2.8,0.38,5.62,0.67,8.4,1.05
	c2.1,0.28,4.19,0.57,6.29,0.85c2.93,0.34,5.84,0.85,8.72,1.53c1.63,0.55,3.27,1.09,4.9,1.64c2.09-0.21,4.18-0.39,6.23-0.4
	c2.9,0.14,5.79,0.33,8.68,0.58c2.81,0.23,5.62,0.45,8.44,0.68c4.18,0.54,8.22,1.62,12.11,3.24c2.73,1.14,5.33,2.55,7.78,4.19
	c8.24-1.05,16.71,0.12,24.37,3.33c6.01,2.52,10.91,6.42,15.91,10.47c0.14,0.11,0.28,0.23,0.42,0.34c2.56,0.21,5.08,0.66,7.58,1.32
	c1.84,0.47,3.69,0.94,5.54,1.42c5.66,1.45,11.32,2.85,16.37,5.94c2,1.22,3.99,2.44,5.99,3.66c2.95,0.93,5.99,1.81,8.79,2.98
	c3.89,1.63,7.63,3.79,11.35,5.88c1.03,0.41,2.06,0.83,3.1,1.24c4.93-0.91,9.99-1.06,14.9-0.44c13.89,1.77,26.2,9.56,34,21.02
	c4.22,1.37,8.31,3.23,12.41,4.91c1.67,0.76,3.34,1.53,5.02,2.29c3.34,1.52,6.87,2.94,10.02,4.79c0.65,0.38,1.28,0.77,1.9,1.19
	c0.6,0.05,1.21,0.11,1.81,0.19c7.62,0.97,14.79,4.26,21.94,6.92c6.11,2.27,11.02,6.35,15.62,10.77c6.81,0.8,13.47,3.02,19.29,6.44
	c8.13,4.77,14.58,11.81,18.79,20.11c2.08,0.75,4.17,1.49,6.25,2.24c3,0.93,5.85,2.2,8.56,3.81c5.67,3.32,10.55,7.92,14.23,13.35
	c2.88,0.69,5.73,1.49,8.45,2.63c4.67,1.96,8.61,4.85,12.72,7.74c2.57,1.81,5.14,3.62,7.71,5.43c2.57,1.81,5.14,3.62,7.71,5.43
	c4.62,3.26,8.54,8.19,11.34,13.04c0.03,0.05,0.05,0.09,0.08,0.14c1.55,0.44,3.08,0.96,4.58,1.59c3.66,1.53,7.05,3.52,10.18,5.95
	c2.75,2.14,5.08,4.59,7.26,7.22c-1.27,18.24-8.44,36.58-2.98,54.8c-1.41,5.03-1.89,10.33-1.38,15.53
	c-4.14,12.38-5.62,25.58-0.77,37.97c-0.72,1.54-1.28,3.09-1.7,4.66c-2.33,8.58-0.71,17.59-0.27,26.33
	c-2.73,11.87-2.83,24.47,3.04,35.45c-1.65,10.86,0.32,21.67,0.32,32.56c0.71,5.54-2.37,10.97-1.75,16.69
	c0.09,6.95,2.58,13.08,2.24,19.98c-2.71,6.27-3.91,12.96-4.02,19.76c-0.3,9.3,3.5,17.93,7.32,26.03
	c1.84,11.16,0.69,22.83,5.96,33.19c-4.48,25.22-13.87,42.5,3.72,66.14c-2.18,10.85,2.39,20.69,4.16,31.06
	c-1.61,8.87-4.25,17.77-2.72,26.84c0.87,4.7,1.96,9.41,4.12,13.7c-0.17,4.39,0.47,8.92,1.6,13.04c3.15,6.82,3.09,13.58,1.09,20.7
	c-1.49,6.73,1.32,13.46,0.83,20.05c-1.21,17.43-6.11,35.89,1.91,52.54c-0.62,10.34-4.47,20.87-0.75,31.11
	c1.97,3.89,1.3,7.7,1.12,11.88c0.77,6.34,1.18,12.08-0.64,18.29c-0.92,6.12,0.05,12.2,1.47,18.16c-7.54,14.54-5.21,31.94-0.03,46.86
	c-4.66,11.66-3.74,25.11,1.58,36.42c-0.2,6.1,0.44,12.18,1.19,18.22c-3.76,10.25,0.51,20.74-0.49,31.15
	c-0.41,6.36,0.22,12.39-1.54,18.58c-1,9.62,1.16,19.08,3.16,28.42c-4.21,8.45-5.66,18.43-4.37,27.69
	c1.33,9.79,6.97,17.68,7.76,27.51c3.61,10.4-6.26,19.02-6.32,29.52c-1.75,13.72,2.35,28.23,11.24,38.88
	c0.01,1.82,0.14,3.65,0.39,5.47c0.31,2.21,0.83,4.32,1.49,6.38c-6.18,13.94-3.81,29.35,2.79,42.55c1.36,11.29-0.04,23.06,2.79,34.11
	c2.1,7.59,1.21,15.8,3.78,23.5c-6.49,14.8-3.57,32.26,2.41,46.74c-0.8,6.09,0.49,12.22,1.85,18.17c-0.98,8.73,0.38,17.26,2.84,25.63
	c-2.2,9.3-2.99,18.71-0.22,27.99c-7.3,14.6-5.04,31.53,1.14,46.07c2.76,5.48,1.51,12.09,4.21,17.76c-3.43,10.88-0.11,21.95-1.95,33
	c-0.02,4.74,0.87,9.39,2.37,13.87c0.27,0.81,0.56,1.6,0.87,2.4c0.24,6.04,0.57,12.04,1.97,17.95c-5.22,15.42-4.68,34.03,3.61,48.29
	c-1.37,12.29,0.21,24.57,3.09,36.53C1910.66,2131.1,1910.35,2134.62,1910.47,2138.11z"/>
</svg>
